<svg width="42" height="42" viewBox="0 0 42 42" fill="none" xmlns="http://www.w3.org/2000/svg">
<path d="M35.7 22.6H35.2V23.1V35.7C35.2 36.1073 35.1093 36.5079 34.8881 36.7959C34.6852 37.0602 34.319 37.3 33.6 37.3H25.7V25.2V24.7H25.2H16.8H16.3V25.2V37.3H8.39999C7.68101 37.3 7.31476 37.0602 7.11184 36.7959C6.89068 36.5079 6.79999 36.1073 6.79999 35.7V23.1V22.6H6.29999H2.78879C2.64012 22.6 2.538 22.5887 2.47068 22.5759C2.49107 22.5351 2.51955 22.486 2.558 22.4286C2.66113 22.2747 2.81607 22.0902 3.01944 21.8797L19.8669 5.01538L19.867 5.01543L19.8729 5.00927C20.1798 4.69141 20.5835 4.52794 21 4.50729C21.4176 4.52794 21.8204 4.69002 22.1262 5.00838L22.1261 5.00845L22.1331 5.01538L38.9786 21.8777C39.1824 22.0887 39.3378 22.2737 39.4412 22.4279C39.4799 22.4856 39.5085 22.5349 39.529 22.576C39.4617 22.5887 39.3597 22.6 39.2112 22.6H35.7Z" stroke="black"/>
</svg>
