<svg width="34" height="34" viewBox="0 0 34 34" fill="none" xmlns="http://www.w3.org/2000/svg">
<path d="M20.9339 21.1763L21.0994 21.0994L21.1763 20.9339L27.6533 7.0109L28.2311 5.76885L26.9891 6.34665L13.0661 12.8237L12.9006 12.9006L12.8237 13.0661L6.34665 26.9891L5.76885 28.2311L7.0109 27.6533L20.9339 21.1763ZM15.63 17C15.63 16.2391 16.2391 15.63 17 15.63C17.7609 15.63 18.37 16.2391 18.37 17C18.37 17.7609 17.7609 18.37 17 18.37C16.2391 18.37 15.63 17.7609 15.63 17ZM0.5 17C0.5 7.89214 7.89214 0.5 17 0.5C26.1079 0.5 33.5 7.89214 33.5 17C33.5 26.1079 26.1079 33.5 17 33.5C7.89214 33.5 0.5 26.1079 0.5 17Z" stroke="black"/>
</svg>
