<svg width="38" height="38" viewBox="0 0 38 38" fill="none" xmlns="http://www.w3.org/2000/svg">
<path d="M16.9166 20.5833V21.0833H17.4166H30.0833C30.2494 21.0833 30.4099 21.1435 30.5351 21.2527C30.6567 21.3587 30.7369 21.5039 30.7622 21.6628L30.7708 21.7878C30.7616 29.3351 24.6465 34.7292 17.0208 34.7292C13.3741 34.7292 9.87672 33.2805 7.29809 30.7019C4.71947 28.1233 3.27081 24.6259 3.27081 20.9792C3.27081 13.3478 8.67296 7.22918 16.2291 7.22918C16.4115 7.22918 16.5863 7.30161 16.7153 7.43054C16.8442 7.55947 16.9166 7.73434 16.9166 7.91668V20.5833ZM20.9791 3.27084C24.6259 3.27084 28.1232 4.7195 30.7019 7.29812C33.2805 9.87675 34.7291 13.3741 34.7291 17.0208C34.7291 17.2032 34.6567 17.378 34.5278 17.507C34.3988 17.6359 34.224 17.7083 34.0416 17.7083H20.9791C20.7968 17.7083 20.6219 17.6359 20.493 17.507C20.3641 17.378 20.2916 17.2032 20.2916 17.0208V3.95834C20.2916 3.77601 20.3641 3.60114 20.493 3.47221C20.6219 3.34328 20.7968 3.27084 20.9791 3.27084Z" stroke="black"/>
</svg>
