<svg width="37" height="37" viewBox="0 0 37 37" fill="none" xmlns="http://www.w3.org/2000/svg">
<path d="M31.926 14.5926L32.0015 14.8557L32.2638 14.9339L36.3652 16.157C36.4045 16.1777 36.4378 16.2085 36.4615 16.2463C36.4888 16.2899 36.5022 16.3407 36.4997 16.3921L36.4992 16.4039V16.4158L36.4992 20.6191C36.4992 20.6193 36.4992 20.6195 36.4992 20.6197C36.4988 20.6731 36.4814 20.725 36.4495 20.768C36.4179 20.8106 36.3736 20.8422 36.3229 20.8584C36.3222 20.8586 36.3216 20.8588 36.3209 20.859L32.1658 22.0907L31.9052 22.1679L31.8283 22.4287C31.5493 23.375 31.1699 24.2888 30.6964 25.1545L30.5665 25.392L30.6944 25.6306L32.7429 29.4524C32.743 29.4526 32.7431 29.4528 32.7432 29.453C32.7685 29.5007 32.7777 29.5553 32.7695 29.6086C32.7613 29.6621 32.7361 29.7117 32.6974 29.7499L32.6953 29.752L29.7447 32.6996L29.7426 32.7017C29.7044 32.7404 29.6546 32.7658 29.6007 32.774C29.5469 32.7822 29.4918 32.7729 29.4437 32.7474C29.4437 32.7474 29.4436 32.7474 29.4435 32.7473L25.6051 30.7005L25.3678 30.574L25.1315 30.7022C24.2681 31.1703 23.3574 31.5454 22.4147 31.8211L22.153 31.8977L22.0756 32.159L20.8428 36.322C20.8426 36.3227 20.8424 36.3234 20.8422 36.3241C20.8261 36.3745 20.7946 36.4186 20.7519 36.4502C20.7088 36.4822 20.6566 36.4996 20.6028 36.5C20.6026 36.5 20.6024 36.5 20.6021 36.5H16.434C16.4338 36.5 16.4336 36.5 16.4334 36.5C16.3796 36.4996 16.3274 36.4822 16.2843 36.4502C16.2416 36.4186 16.21 36.3744 16.194 36.3239C16.1938 36.3233 16.1936 36.3226 16.1934 36.322L14.9605 32.171L14.8826 31.9088L14.6198 31.833C13.6688 31.5586 12.75 31.1835 11.879 30.7139L11.6429 30.5867L11.4064 30.7129L7.59266 32.7473C7.59248 32.7474 7.5923 32.7475 7.59212 32.7476C7.54413 32.7729 7.48922 32.7822 7.4355 32.774C7.38158 32.7658 7.33183 32.7404 7.29361 32.7017L7.29149 32.6996L4.34095 29.752L4.33882 29.7499C4.30014 29.7117 4.27488 29.6621 4.26669 29.6086C4.25851 29.5551 4.26781 29.5003 4.29328 29.4524L4.29486 29.4494L6.31951 25.5767L6.44559 25.3355L6.31152 25.0987C5.81429 24.2205 5.41477 23.2905 5.12007 22.3254L5.04191 22.0694L4.78555 21.9925L0.678255 20.7603C0.677822 20.7602 0.677388 20.76 0.676955 20.7599C0.62594 20.7439 0.581385 20.7121 0.549627 20.6693C0.517776 20.6264 0.500429 20.5746 0.5 20.5213V16.3556C0.500429 16.3023 0.517776 16.2504 0.549627 16.2075C0.581431 16.1647 0.626068 16.1329 0.677176 16.1169C0.677535 16.1168 0.677895 16.1167 0.678255 16.1166L4.76165 14.8841L5.01973 14.8062L5.09648 14.5478C5.388 13.5664 5.78761 12.6202 6.28797 11.7268L6.4224 11.4867L6.29157 11.2447L4.29327 7.5478C4.29306 7.54742 4.29286 7.54703 4.29266 7.54665C4.26766 7.49903 4.25857 7.44471 4.26669 7.3916C4.27482 7.33845 4.29977 7.28923 4.33797 7.25116L7.33643 4.32962L7.33649 4.32968L7.34298 4.32311C7.38121 4.28446 7.43096 4.25909 7.48488 4.25086C7.53838 4.2427 7.59306 4.25186 7.64092 4.27694C7.64129 4.27713 7.64167 4.27733 7.64204 4.27753L11.3426 6.27388L11.5839 6.40407L11.8234 6.27055C12.7216 5.76984 13.6728 5.37058 14.6594 5.08015L14.9183 5.00393L14.9967 4.74563L16.2304 0.678188C16.2305 0.677865 16.2306 0.677543 16.2307 0.677221C16.2467 0.626381 16.2784 0.581799 16.3214 0.549951C16.3644 0.518064 16.4165 0.500618 16.4702 0.500189H20.6415V0.500314L20.6527 0.500064C20.7064 0.498862 20.759 0.514707 20.803 0.545251C20.8449 0.574374 20.877 0.615405 20.895 0.662841L22.1258 4.7329L22.2037 4.99037L22.4614 5.06729C23.4399 5.35927 24.3829 5.75848 25.2735 6.25765L25.5121 6.39141L25.7534 6.26256L29.5176 4.25286C29.5177 4.25279 29.5179 4.25272 29.518 4.25265C29.566 4.22728 29.621 4.21799 29.6748 4.2262C29.7287 4.23443 29.7784 4.2598 29.8167 4.29845L29.818 4.29982L32.7686 7.25982L32.7714 7.26265C32.8101 7.30084 32.8354 7.35039 32.8436 7.40393C32.8517 7.45727 32.8425 7.51183 32.8173 7.5596C32.8172 7.55978 32.8171 7.55995 32.817 7.56013L30.7929 11.3454L30.6661 11.5825L30.7941 11.819C31.2705 12.7 31.65 13.6299 31.926 14.5926ZM14.5052 24.5561C15.704 25.3563 17.1134 25.7834 18.5551 25.7834C20.4884 25.7834 22.3426 25.0162 23.7097 23.6503C25.0769 22.2845 25.8451 20.4319 25.8451 18.5001C25.8451 17.0595 25.4175 15.6513 24.6164 14.4535C23.8153 13.2558 22.6767 12.3223 21.3447 11.7711C20.0127 11.2199 18.547 11.0757 17.133 11.3567C15.719 11.6377 14.4201 12.3313 13.4005 13.3499C12.381 14.3684 11.6866 15.6662 11.4053 17.0791C11.1239 18.492 11.2683 19.9565 11.8201 21.2875C12.372 22.6184 13.3064 23.7558 14.5052 24.5561Z" stroke="black"/>
</svg>
